# xmcd
#
# Track frame offsets:
# 150
# 19018
# 30684
# 49386
# 65874
# 85038
# 99594
# 117818
# 136857
# 157581
# 171951
# 186503
#
# Disc length: 2785 seconds
#
#
# Revision: 0
# Processed by: cddbd v1.5.2PL0 Copyright (c) Steve Scherf et al.
# Submitted via: FreeRIP 2.945 
#
DISCID=9b0adf0c
DTITLE=Year of the Rabbit - Year of the Rabbit
DYEAR=2002
DGENRE=Acid
TTITLE0=1
TTITLE1=22
TTITLE2=3
TTITLE3=3
TTITLE4=5
TTITLE5=6
TTITLE6=7
TTITLE7=8
TTITLE8=9
TTITLE9=11
TTITLE10=111
TTITLE11=23
EXTD=my version, with a few extra tracks
EXTT0=
EXTT1=
EXTT2=
EXTT3=
EXTT4=
EXTT5=
EXTT6=
EXTT7=
EXTT8=
EXTT9=
EXTT10=
EXTT11=
PLAYORDER=
